<svg xmlns="http://www.w3.org/2000/svg" width="256" height="256"><rect width="256" height="256" fill="#eee9dc"/><path d="M0 0h256M0 8h256M0 16h256M0 24h256M0 32h256M0 40h256M0 48h256M0 56h256M0 64h256M0 72h256M0 80h256M0 88h256M0 96h256M0 104h256M0 112h256M0 120h256M0 128h256M0 136h256M0 144h256M0 152h256M0 160h256M0 168h256M0 176h256M0 184h256M0 192h256M0 200h256M0 208h256M0 216h256M0 224h256M0 232h256M0 240h256M0 248h256M0 0v256M8 0v256M16 0v256M24 0v256M32 0v256M40 0v256M48 0v256M56 0v256M64 0v256M72 0v256M80 0v256M88 0v256M96 0v256M104 0v256M112 0v256M120 0v256M128 0v256M136 0v256M144 0v256M152 0v256M160 0v256M168 0v256M176 0v256M184 0v256M192 0v256M200 0v256M208 0v256M216 0v256M224 0v256M232 0v256M240 0v256M248 0v256" stroke="#8d7f69" stroke-opacity=".12"/></svg>
